<svg xmlns="http://www.w3.org/2000/svg" xmlns:xlink="http://www.w3.org/1999/xlink" width="188" height="74" viewBox="0 0 188 74">
  <defs>
    <clipPath id="clip-path">
      <rect id="사각형_308" data-name="사각형 308" width="188" height="74" fill="none" stroke="#707070" stroke-width="1"/>
    </clipPath>
    <linearGradient id="linear-gradient" x1="1.338" y1="1.265" x2="0.234" y2="0.152" gradientUnits="objectBoundingBox">
      <stop offset="0" stop-color="#fff"/>
      <stop offset="1" stop-color="#ff666e"/>
    </linearGradient>
  </defs>
  <g id="마스크_그룹_13" data-name="마스크 그룹 13" clip-path="url(#clip-path)">
    <g id="구성_요소_1_47" data-name="구성 요소 1 – 47" transform="translate(20.6 14.934)">
      <path id="패스_345" data-name="패스 345" d="M101.5,378.563,84,385.983v16.6c0,2.916.729,6.562,5.833,11.666a36.913,36.913,0,0,0,11.666,7.385,36.913,36.913,0,0,0,11.666-7.385c5.1-5.1,5.833-8.749,5.833-11.666v-16.6Z" transform="translate(-84 -378.563)" fill="url(#linear-gradient)"/>
      <g id="그룹_388" data-name="그룹 388" transform="translate(44.612 10.087)">
        <path id="패스_432" data-name="패스 432" d="M161.58,390.861a8,8,0,0,1,3.188,2.586,6.925,6.925,0,0,1,1.3,3.762h-5.144a3.4,3.4,0,0,0-1.286-2.3,4.543,4.543,0,0,0-2.844-.821,4.883,4.883,0,0,0-2.654.616,1.883,1.883,0,0,0-.957,1.655,1.693,1.693,0,0,0,.6,1.341,5.332,5.332,0,0,0,1.847.916q1.244.4,3.624.888a9.638,9.638,0,0,1,5.294,2.531,6.328,6.328,0,0,1,1.6,4.418,5.829,5.829,0,0,1-1.189,3.638,7.549,7.549,0,0,1-3.242,2.394,12.016,12.016,0,0,1-4.568.835,12.214,12.214,0,0,1-4.91-.944,8.181,8.181,0,0,1-3.447-2.695,7.392,7.392,0,0,1-1.382-4.1h5.116a3.7,3.7,0,0,0,1.545,2.585,5.662,5.662,0,0,0,3.433.971,4.373,4.373,0,0,0,2.53-.684,2.144,2.144,0,0,0,.466-3.228,4.217,4.217,0,0,0-1.7-.985,22.55,22.55,0,0,0-3.24-.793,11.52,11.52,0,0,1-5.609-2.38,5.992,5.992,0,0,1-1.86-4.705,5.22,5.22,0,0,1,1.19-3.419,7.564,7.564,0,0,1,3.242-2.23,12.863,12.863,0,0,1,4.6-.779A10.449,10.449,0,0,1,161.58,390.861Z" transform="translate(-147.409 -389.931)"/>
        <path id="패스_433" data-name="패스 433" d="M173.468,390.563h9.684a8.4,8.4,0,0,1,5.7,1.778,6.125,6.125,0,0,1,2.039,4.87,4.406,4.406,0,0,1-.739,2.393,3.706,3.706,0,0,1-1.86,1.573,5.213,5.213,0,0,1,2.613,1.9,4.961,4.961,0,0,1,1.026,3.023,6.689,6.689,0,0,1-.944,3.583,6.08,6.08,0,0,1-2.749,2.353,10.239,10.239,0,0,1-4.268.821h-10.5Zm9.465,9.027a3.482,3.482,0,0,0,2.2-.615,2.114,2.114,0,0,0,.78-1.764,2.145,2.145,0,0,0-.78-1.792,3.477,3.477,0,0,0-2.2-.616h-4.485v4.786Zm.821,9.028a3.759,3.759,0,0,0,2.353-.656,2.464,2.464,0,0,0,0-3.721,3.753,3.753,0,0,0-2.353-.657h-5.306v5.034Z" transform="translate(-152.296 -390.016)"/>
        <path id="패스_434" data-name="패스 434" d="M211.808,408.536h-8.644l-1.559,4.322h-5.143l8.645-22.3h5.17l8.645,22.3h-5.553Zm-1.531-4.323-2.791-7.769-2.789,7.769Z" transform="translate(-156.772 -390.016)"/>
        <path id="패스_435" data-name="패스 435" d="M238.524,390.861a7.986,7.986,0,0,1,3.188,2.586,6.911,6.911,0,0,1,1.3,3.762h-5.143a3.4,3.4,0,0,0-1.286-2.3,4.546,4.546,0,0,0-2.845-.821,4.88,4.88,0,0,0-2.653.616,1.883,1.883,0,0,0-.957,1.655,1.69,1.69,0,0,0,.6,1.341,5.335,5.335,0,0,0,1.847.916q1.244.4,3.624.888a9.635,9.635,0,0,1,5.294,2.531,6.325,6.325,0,0,1,1.6,4.418,5.825,5.825,0,0,1-1.19,3.638,7.539,7.539,0,0,1-3.242,2.394,12.012,12.012,0,0,1-4.567.835,12.211,12.211,0,0,1-4.91-.944,8.176,8.176,0,0,1-3.447-2.695,7.386,7.386,0,0,1-1.382-4.1h5.115a3.7,3.7,0,0,0,1.546,2.585,5.661,5.661,0,0,0,3.433.971,4.376,4.376,0,0,0,2.53-.684,2.069,2.069,0,0,0,1-1.778,2.048,2.048,0,0,0-.533-1.45,4.212,4.212,0,0,0-1.7-.985,22.536,22.536,0,0,0-3.241-.793,11.517,11.517,0,0,1-5.608-2.38,5.989,5.989,0,0,1-1.86-4.705,5.22,5.22,0,0,1,1.19-3.419,7.561,7.561,0,0,1,3.241-2.23,12.863,12.863,0,0,1,4.6-.779A10.45,10.45,0,0,1,238.524,390.861Z" transform="translate(-161.905 -389.931)"/>
      </g>
      <g id="그룹_389" data-name="그룹 389" transform="translate(0 0.44)">
        <path id="패스_437" data-name="패스 437" d="M94.674,414.811a1.084,1.084,0,0,1-.851-1.755c.045-.059,2.62-3.413,1.317-6.019-1.788-3.576-2.641-10.372,2.333-14.442a10.763,10.763,0,0,1,8.988-2.154,9.5,9.5,0,0,1,6.606,4.968c2.7,5.392.739,8.747.654,8.886a1.084,1.084,0,1,1-1.857-1.121c.051-.09,1.391-2.541-.736-6.8a7.341,7.341,0,0,0-5.121-3.817,8.576,8.576,0,0,0-7.162,1.712c-3.99,3.265-3.243,8.842-1.767,11.794,1.926,3.851-1.411,8.15-1.553,8.332A1.082,1.082,0,0,1,94.674,414.811Z" transform="translate(-86.66 -381.793)" fill="#fff"/>
        <path id="패스_438" data-name="패스 438" d="M109.8,418.124a7.7,7.7,0,0,1-1.291-.112c-3.226-.553-4.288-2.021-4.4-2.187a1.083,1.083,0,0,1-.089-1.041l2.98-6.7c-.808-.822-2.365-2.428-3.392-3.633-.552-.647-1.135-.828-1.356-.746-.124.045-.256.335-.256.862a1.822,1.822,0,0,0,1.565,1.8,1.084,1.084,0,0,1-.367,2.137,3.981,3.981,0,0,1-3.365-3.939,2.767,2.767,0,0,1,1.674-2.9,3.519,3.519,0,0,1,3.756,1.372c1.036,1.215,2.7,2.919,3.431,3.664l7.647-.91a1.082,1.082,0,0,1,1.211,1.036c.02.554.148,5.479-1.539,7.784A7.616,7.616,0,0,1,109.8,418.124Zm-3.482-3.168a6.475,6.475,0,0,0,2.557.919c2.105.363,3.869-.469,5.385-2.539.811-1.109,1.064-3.6,1.118-5.244l-6.345.756Z" transform="translate(-88.39 -384.929)" fill="#fff"/>
        <path id="패스_439" data-name="패스 439" d="M105.7,419.543a1.081,1.081,0,0,1-.767-.317,13.444,13.444,0,0,1-2.565-4.584,1.084,1.084,0,1,1,2.036-.745,11.14,11.14,0,0,0,2.062,3.8,1.084,1.084,0,0,1-.766,1.85Z" transform="translate(-89.076 -388.165)" fill="#fff"/>
      </g>
    </g>
  </g>
</svg>
