<svg xmlns="http://www.w3.org/2000/svg" width="279.557" height="62.527" viewBox="0 0 279.557 62.527">
  <g id="그룹_88" data-name="그룹 88" transform="translate(-396.132)">
    <g id="그룹_87" data-name="그룹 87" transform="translate(0.46 1.683)">
      <g id="그룹_83" data-name="그룹 83" transform="translate(471.615)">
        <path id="패스_281" data-name="패스 281" d="M529.616,1325.376c0-4.988,3.25-7.91,7.257-7.91a6.364,6.364,0,0,1,4.68,1.942l-1.615,1.921a3.939,3.939,0,0,0-2.964-1.266c-2.513,0-4.271,1.962-4.271,5.211,0,3.291,1.511,5.274,4.476,5.274a2.932,2.932,0,0,0,1.9-.572v-2.985H536.4v-2.473h5.375v6.827a7.122,7.122,0,0,1-4.9,1.818C532.723,1333.164,529.616,1330.425,529.616,1325.376Z" transform="translate(-529.616 -1317.466)" fill="#fff"/>
        <path id="패스_282" data-name="패스 282" d="M560.577,1320.4h-6.255v3.5h5.314v2.535h-5.314v4.047h6.48v2.534H551.3v-15.125h9.28Z" transform="translate(-536.502 -1317.599)" fill="#fff"/>
        <path id="패스_283" data-name="패스 283" d="M566.988,1317.886h11.569v2.513h-4.292v12.612H571.24V1320.4h-4.252Z" transform="translate(-541.486 -1317.599)" fill="#fff"/>
        <path id="패스_284" data-name="패스 284" d="M595.558,1333.011h-3.026v-15.125h3.026Z" transform="translate(-549.599 -1317.599)" fill="#fff"/>
        <path id="패스_285" data-name="패스 285" d="M599.688,1317.886h11.569v2.513h-4.292v12.612H603.94V1320.4h-4.252Z" transform="translate(-551.872 -1317.599)" fill="#fff"/>
        <path id="패스_286" data-name="패스 286" d="M624.124,1325.253c0-4.926,2.76-7.788,6.766-7.788s6.765,2.882,6.765,7.788-2.76,7.91-6.765,7.91S624.124,1330.159,624.124,1325.253Zm10.445,0c0-3.291-1.37-5.191-3.679-5.191s-3.679,1.9-3.679,5.191c0,3.209,1.431,5.294,3.679,5.294S634.569,1328.463,634.569,1325.253Z" transform="translate(-559.633 -1317.466)" fill="#fff"/>
        <path id="패스_287" data-name="패스 287" d="M654.872,1325.939l1.513,3.269h.1c-.164-1.574-.389-3.577-.389-5.293v-6.03h2.862v15.125H655.9l-4.375-8.095-1.533-3.25h-.1c.143,1.635.368,3.536.368,5.273v6.071h-2.861v-15.125h3.086Z" transform="translate(-567.023 -1317.599)" fill="#fff"/>
      </g>
      <g id="그룹_84" data-name="그룹 84" transform="translate(471.476 25.031)">
        <path id="패스_288" data-name="패스 288" d="M549.814,1355.513a13.3,13.3,0,0,1,4.664,3.2,11.761,11.761,0,0,1,2.658,4.534h-6.524a6.535,6.535,0,0,0-2.691-2.5,8.733,8.733,0,0,0-4.159-.962,8.558,8.558,0,0,0-4.305,1.093,7.844,7.844,0,0,0-3.017,3.033,8.781,8.781,0,0,0-1.093,4.387,8.962,8.962,0,0,0,1.093,4.419,7.893,7.893,0,0,0,3.017,3.083,8.46,8.46,0,0,0,4.305,1.109,8.9,8.9,0,0,0,3.621-.718,7.356,7.356,0,0,0,2.659-1.908,6.071,6.071,0,0,0,1.353-2.528h-8.122v-5.023h14.449v1.566a14.014,14.014,0,0,1-1.843,7.159,13.266,13.266,0,0,1-5.056,4.99,14.4,14.4,0,0,1-7.192,1.81,14.711,14.711,0,0,1-7.29-1.81,13.2,13.2,0,0,1-5.089-4.99,14.831,14.831,0,0,1,0-14.318,13.2,13.2,0,0,1,5.089-4.99,14.711,14.711,0,0,1,7.29-1.81A15.779,15.779,0,0,1,549.814,1355.513Z" transform="translate(-529.412 -1354.208)" fill="#fff"/>
        <path id="패스_289" data-name="패스 289" d="M587.362,1366.908a9.3,9.3,0,0,1,3.62,3.571,10.83,10.83,0,0,1,0,10.307,9.307,9.307,0,0,1-3.62,3.572,11.213,11.213,0,0,1-10.437,0,9.291,9.291,0,0,1-3.621-3.572,10.83,10.83,0,0,1,0-10.307,9.289,9.289,0,0,1,3.621-3.571,11.208,11.208,0,0,1,10.437,0Zm-8.5,5.088a5.892,5.892,0,0,0,0,7.274,4.5,4.5,0,0,0,6.556,0,5.9,5.9,0,0,0,0-7.274,4.5,4.5,0,0,0-6.556,0Z" transform="translate(-542.938 -1357.791)" fill="#fff"/>
        <path id="패스_290" data-name="패스 290" d="M618.239,1366.908a9.3,9.3,0,0,1,3.62,3.571,10.83,10.83,0,0,1,0,10.307,9.307,9.307,0,0,1-3.62,3.572,11.213,11.213,0,0,1-10.437,0,9.29,9.29,0,0,1-3.621-3.572,10.83,10.83,0,0,1,0-10.307,9.288,9.288,0,0,1,3.621-3.571,11.208,11.208,0,0,1,10.437,0Zm-8.5,5.088a5.895,5.895,0,0,0,0,7.274,4.5,4.5,0,0,0,6.556,0,5.895,5.895,0,0,0,0-7.274,4.5,4.5,0,0,0-6.556,0Z" transform="translate(-552.745 -1357.791)" fill="#fff"/>
        <path id="패스_291" data-name="패스 291" d="M639.739,1392.675a8.187,8.187,0,0,1-3.18-2.5,7.959,7.959,0,0,1-1.5-3.49h5.871q.488,2.023,3.555,2.023a4.034,4.034,0,0,0,2.936-1.076,3.818,3.818,0,0,0,1.109-2.87v-2.023a6.383,6.383,0,0,1-5.48,2.414,9.382,9.382,0,0,1-4.827-1.239,8.55,8.55,0,0,1-3.294-3.458,10.492,10.492,0,0,1-1.174-4.99,10.731,10.731,0,0,1,1.174-5.072,8.753,8.753,0,0,1,3.294-3.507,9.194,9.194,0,0,1,4.827-1.272,6.385,6.385,0,0,1,5.48,2.414v-1.957h5.806v18.755a8.309,8.309,0,0,1-1.272,4.549,8.563,8.563,0,0,1-3.506,3.116,12.357,12.357,0,0,1-9.818.179Zm7.617-13.683a5.514,5.514,0,0,0,0-7.046,4.41,4.41,0,0,0-3.392-1.37,4.227,4.227,0,0,0-3.295,1.37,5.624,5.624,0,0,0,0,7.046,4.227,4.227,0,0,0,3.295,1.37A4.41,4.41,0,0,0,647.355,1378.992Z" transform="translate(-562.552 -1357.791)" fill="#fff"/>
        <path id="패스_292" data-name="패스 292" d="M673.734,1381.546h-5.806v-27.4h5.806Z" transform="translate(-573.406 -1354.147)" fill="#fff"/>
        <path id="패스_293" data-name="패스 293" d="M683.827,1384.357a9.162,9.162,0,0,1-3.538-3.572,11.076,11.076,0,0,1,0-10.307,9.16,9.16,0,0,1,3.538-3.571,10.882,10.882,0,0,1,10.275,0,9.167,9.167,0,0,1,3.539,3.571,10.406,10.406,0,0,1,1.272,5.153,13.172,13.172,0,0,1-.131,1.859H684.79a4.265,4.265,0,0,0,1.435,2.577,4.163,4.163,0,0,0,2.74.913,5.58,5.58,0,0,0,2.2-.408,2.512,2.512,0,0,0,1.321-1.092h5.838a7.271,7.271,0,0,1-1.826,3.213,9.322,9.322,0,0,1-3.294,2.169,11.315,11.315,0,0,1-4.24.783A10.211,10.211,0,0,1,683.827,1384.357Zm9.41-10.617a4.389,4.389,0,0,0-1.468-2.626,4.319,4.319,0,0,0-2.8-.9,4.187,4.187,0,0,0-2.773.9,4.463,4.463,0,0,0-1.435,2.626Z" transform="translate(-576.928 -1357.791)" fill="#fff"/>
        <path id="패스_294" data-name="패스 294" d="M722.034,1355.343h10.209a13.266,13.266,0,0,1,5.887,1.206,8.749,8.749,0,0,1,3.767,3.392,9.807,9.807,0,0,1,1.3,5.121,9.954,9.954,0,0,1-1.3,5.169,8.7,8.7,0,0,1-3.767,3.409,13.247,13.247,0,0,1-5.887,1.207H727.97v7.078h-5.936Zm9.948,14.253a5.857,5.857,0,0,0,3.9-1.174,4.157,4.157,0,0,0,1.386-3.359,4.061,4.061,0,0,0-1.386-3.327,5.972,5.972,0,0,0-3.9-1.142H727.97v9Z" transform="translate(-590.591 -1354.527)" fill="#fff"/>
        <path id="패스_295" data-name="패스 295" d="M760.915,1381.546h-5.806v-27.4h5.806Z" transform="translate(-601.096 -1354.147)" fill="#fff"/>
        <path id="패스_296" data-name="패스 296" d="M770.667,1384.357a8.792,8.792,0,0,1-3.294-3.572,11.894,11.894,0,0,1,0-10.307,8.79,8.79,0,0,1,3.294-3.571,9.107,9.107,0,0,1,4.827-1.289,6.386,6.386,0,0,1,5.48,2.414v-1.957h5.805v19.114h-5.805v-1.957a6.384,6.384,0,0,1-5.48,2.414A9.106,9.106,0,0,1,770.667,1384.357Zm9.133-5.088a5.835,5.835,0,0,0,0-7.274,4.334,4.334,0,0,0-3.392-1.419,4.158,4.158,0,0,0-3.295,1.419,5.956,5.956,0,0,0,0,7.274,4.158,4.158,0,0,0,3.295,1.419A4.334,4.334,0,0,0,779.8,1379.27Z" transform="translate(-604.618 -1357.791)" fill="#fff"/>
        <path id="패스_297" data-name="패스 297" d="M818.33,1366.288l-10.991,27.073h-5.708l3.458-8.481-7.534-18.592h6.425l4.142,11.807,4.175-11.807Z" transform="translate(-614.577 -1358.003)" fill="#fff"/>
      </g>
    </g>
    <g id="그룹_85" data-name="그룹 85" transform="translate(396.132)">
      <path id="패스_298" data-name="패스 298" d="M462.206,1335.579l-34.478-19.905a4.936,4.936,0,0,0-4.838-.078l29.386,30.181Z" transform="translate(-420.235 -1315)" fill="#00ed76"/>
      <path id="패스_299" data-name="패스 299" d="M485.219,1350.547l-9.336-5.39-9.93,10.2,9.329,9.581,9.936-5.736A5,5,0,0,0,485.219,1350.547Z" transform="translate(-433.913 -1324.578)" fill="#fdcb05"/>
      <path id="패스_300" data-name="패스 300" d="M421.654,1315.872a4.946,4.946,0,0,0-2.654,4.4v50.591a4.964,4.964,0,0,0,3.31,4.694l28.731-29.508Z" transform="translate(-419 -1315.277)" fill="#00d3fc"/>
      <path id="패스_301" data-name="패스 301" d="M423.85,1389.609a4.921,4.921,0,0,0,4.183-.368l33.877-19.559-9.329-9.581Z" transform="translate(-420.54 -1329.325)" fill="#fd3344"/>
    </g>
  </g>
</svg>
