<svg xmlns="http://www.w3.org/2000/svg" width="40" height="39" viewBox="0 0 40 39">
    <g data-name="그룹 14125" transform="translate(-24 -70)">
        <ellipse data-name="타원 16" cx="20" cy="19.5" rx="20" ry="19.5" transform="translate(24 70)" style="fill:#74afeb"/>
        <g data-name="그룹 13988" transform="translate(32.588 77.88)">
            <path data-name="패스 402" d="M620.559 969.567a11.413 11.413 0 1 1 16.413 3.011 6.571 6.571 0 0 1-3.105.857c-1.628 0-4.028-.773-3.9-4.884" transform="translate(-618.759 -952)" style="stroke-miterlimit:10;fill:none;stroke:#fff;stroke-linecap:round;stroke-width:2px"/>
            <path data-name="패스 403" d="M635.572 966H633v5.155a4.257 4.257 0 0 0 .451 1.934 5.285 5.285 0 0 0 4.663 3.189" transform="translate(-626.895 -959.998)" style="stroke-linejoin:round;fill:none;stroke:#fff;stroke-linecap:round;stroke-width:2px"/>
            <path data-name="패스 404" d="M647.47 966h2.572v5.155a4.249 4.249 0 0 1-.451 1.934 5.284 5.284 0 0 1-4.663 3.189" transform="translate(-633.709 -959.998)" style="stroke-linejoin:round;fill:none;stroke:#fff;stroke-linecap:round;stroke-width:2px"/>
            <circle data-name="타원 29" cx="2.556" cy="2.556" r="2.556" transform="translate(.867 17.321)" style="fill:#fff"/>
        </g>
    </g>
</svg>
