<svg xmlns="http://www.w3.org/2000/svg" width="36" height="36" viewBox="0 0 36 36">
  <g id="그룹_14365" data-name="그룹 14365" transform="translate(-272.25 -333)">
    <g id="사각형_6992" data-name="사각형 6992" opacity="0.2">
      <rect id="사각형_6992-2" data-name="사각형 6992" width="36" height="36" rx="4" transform="translate(272.25 333)" fill="#fff"/>
      <path id="사각형_6992_-_윤곽선" data-name="사각형 6992 - 윤곽선" d="M4,1A3,3,0,0,0,1,4V32a3,3,0,0,0,3,3H32a3,3,0,0,0,3-3V4a3,3,0,0,0-3-3H4M4,0H32a4,4,0,0,1,4,4V32a4,4,0,0,1-4,4H4a4,4,0,0,1-4-4V4A4,4,0,0,1,4,0Z" transform="translate(272.25 333)" fill="#676a7a"/>
    </g>
    <g id="그룹_14364" data-name="그룹 14364" transform="translate(279.288 342.063)">
      <path id="패스_8668" data-name="패스 8668" d="M120.628,491.715a12.792,12.792,0,0,1,8.04,2.7,8.531,8.531,0,0,1,3.4,6.652,8.382,8.382,0,0,1-2.682,6.005.6.6,0,0,1-.123.178l-4.912,4.912a.6.6,0,0,1-1.024-.424v-1.587a13.887,13.887,0,0,1-2.7.263,12.791,12.791,0,0,1-8.039-2.7,8.212,8.212,0,0,1,0-13.3A12.791,12.791,0,0,1,120.628,491.715Zm7.587,14.879a.6.6,0,0,1,.149-.214,7.256,7.256,0,0,0,2.5-5.318c0-4.493-4.592-8.148-10.237-8.148s-10.236,3.655-10.236,8.148,4.592,8.147,10.236,8.147a12.628,12.628,0,0,0,3.147-.4.6.6,0,0,1,.75.581v.89Z" transform="translate(-109.792 -492.315)"/>
      <g id="그룹_14127" data-name="그룹 14127" transform="translate(4.756 7.526)">
        <circle id="타원_51" data-name="타원 51" cx="1.285" cy="1.285" r="1.285"/>
        <circle id="타원_52" data-name="타원 52" cx="1.285" cy="1.285" r="1.285" transform="translate(4.805)"/>
        <circle id="타원_53" data-name="타원 53" cx="1.285" cy="1.285" r="1.285" transform="translate(9.592)"/>
      </g>
    </g>
  </g>
</svg>
