<svg xmlns="http://www.w3.org/2000/svg" xmlns:xlink="http://www.w3.org/1999/xlink" width="32" height="32" viewBox="0 0 32 32">
  <defs>
    <clipPath id="clip-path">
      <rect id="사각형_6983" data-name="사각형 6983" width="32" height="32" transform="translate(32 476)" fill="none" stroke="#707070" stroke-width="1"/>
    </clipPath>
  </defs>
  <g id="마스크_그룹_112" data-name="마스크 그룹 112" transform="translate(-32 -476)" clip-path="url(#clip-path)">
    <g id="그룹_14298" data-name="그룹 14298" transform="translate(1 83)" opacity="0.6">
      <g id="사각형_6930" data-name="사각형 6930" transform="translate(40.619 397.796)" fill="#fff" stroke="#676a7a" stroke-width="1.5">
        <rect width="17.378" height="14.356" rx="1" stroke="none"/>
        <rect x="0.75" y="0.75" width="15.878" height="12.856" rx="0.25" fill="none"/>
      </g>
      <g id="그룹_14297" data-name="그룹 14297" transform="translate(10 -11.082)">
        <rect id="사각형_6932" data-name="사각형 6932" width="17" height="13" transform="translate(27 414)" fill="#fff"/>
        <path id="패스_8698" data-name="패스 8698" d="M-485.981,841H-502.11a.4.4,0,0,0-.4.4v13.467a.4.4,0,0,0,.4.4h16.129a.4.4,0,0,0,.4-.4V841.4A.4.4,0,0,0-485.981,841Zm-11.8,2.438a1.556,1.556,0,0,1,1.556,1.556,1.556,1.556,0,0,1-1.556,1.556,1.556,1.556,0,0,1-1.556-1.556A1.556,1.556,0,0,1-497.78,843.438Zm10.171,9.873h-12.874V852.2l2.683-2.522a.1.1,0,0,1,.153,0l1.4,1.679,3.03-3.95a.1.1,0,0,1,.158,0l5.453,4.793Z" transform="translate(529.709 -428.182)" fill="#fff" stroke="#676a7a" stroke-width="1.5"/>
      </g>
    </g>
  </g>
</svg>
