<svg xmlns="http://www.w3.org/2000/svg" width="25" height="25" viewBox="0 0 25 25">
  <g id="그룹_13943" data-name="그룹 13943" transform="translate(-40 -544)">
    <circle id="타원_16" data-name="타원 16" cx="12.5" cy="12.5" r="12.5" transform="translate(40 544)" fill="#74afeb"/>
    <g id="그룹_13925" data-name="그룹 13925" transform="translate(46.944 549.993)">
      <path id="패스_346" data-name="패스 346" d="M94.16,403.129a.569.569,0,0,1-.447-.922c.024-.031,1.376-1.792.692-3.161-.939-1.878-1.387-5.447,1.225-7.585a5.652,5.652,0,0,1,4.721-1.131,4.987,4.987,0,0,1,3.469,2.609c1.416,2.832.388,4.594.343,4.667a.569.569,0,1,1-.975-.589c.027-.047.731-1.334-.387-3.569a3.855,3.855,0,0,0-2.689-2,4.5,4.5,0,0,0-3.761.9c-2.1,1.715-1.7,4.644-.928,6.194,1.011,2.022-.741,4.28-.816,4.375A.568.568,0,0,1,94.16,403.129Z" transform="translate(-93.591 -390.208)" fill="#fff"/>
      <path id="패스_347" data-name="패스 347" d="M105.067,410.238a4.047,4.047,0,0,1-.678-.059,3.38,3.38,0,0,1-2.31-1.149.569.569,0,0,1-.047-.547l1.565-3.52c-.424-.432-1.242-1.275-1.782-1.908-.29-.34-.6-.435-.712-.392-.065.024-.134.176-.134.453a.957.957,0,0,0,.822.947.569.569,0,0,1-.193,1.122,2.091,2.091,0,0,1-1.767-2.069,1.453,1.453,0,0,1,.879-1.521,1.848,1.848,0,0,1,1.972.721c.544.638,1.417,1.533,1.8,1.924l4.016-.478a.568.568,0,0,1,.636.544c.011.291.078,2.878-.808,4.088A4,4,0,0,1,105.067,410.238Zm-1.829-1.664a3.4,3.4,0,0,0,1.343.483,2.763,2.763,0,0,0,2.828-1.334A5.982,5.982,0,0,0,108,404.97l-3.332.4Z" transform="translate(-97.463 -397.225)" fill="#fff"/>
      <path id="패스_348" data-name="패스 348" d="M104.086,416.524a.567.567,0,0,1-.4-.167,7.061,7.061,0,0,1-1.347-2.408.569.569,0,1,1,1.069-.391,5.852,5.852,0,0,0,1.083,1.994.569.569,0,0,1-.4.972Z" transform="translate(-98.995 -404.464)" fill="#fff"/>
    </g>
  </g>
</svg>
