<svg xmlns="http://www.w3.org/2000/svg" width="36" height="36" viewBox="0 0 36 36">
  <g id="그룹_14104" data-name="그룹 14104" transform="translate(-24 -163)">
    <circle id="타원_33" data-name="타원 33" cx="18" cy="18" r="18" transform="translate(24 163)" fill="#eff0f2" />
    <g id="그룹_173" data-name="그룹 173" transform="translate(34.981 170.759)">
      <path id="패스_349" data-name="패스 349" d="M553.936-316.105s.467-6.354-5.139-7.569-7.849,2.336-8.6,3.27a6.328,6.328,0,0,0,.013,6.05c1.682,3.551,2.71,3.457,2.429,5.793a23.132,23.132,0,0,1-1.215,4.765h8.036s-.28-2.616.748-3.177l2.242-.093a1.662,1.662,0,0,0,1.215-.747,36.611,36.611,0,0,0,1.965-4.969,1.15,1.15,0,0,0-.137-1.017Z" transform="translate(-539.463 323.924)" fill="#fff" stroke="#b1b6bb" stroke-linejoin="round" stroke-miterlimit="10" stroke-width="1.5"/>
      <path id="패스_350" data-name="패스 350" d="M595.455-231.7s-3.187,2.245-5.71,2.152l-4.018-2.336s-.747-.28-1.121.654.467,3.27,1.121,3.364a2.192,2.192,0,0,0,.825-.026.261.261,0,0,1,.3.145c.308.67,1.262,2.729,1.585,3.245.467.747,2.616.934,2.616.934" transform="translate(-580.304 240.518)" fill="none" stroke="#b1b6bb" stroke-linejoin="round" stroke-miterlimit="10" stroke-width="1.5"/>
      <line id="선_1" data-name="선 1" x1="1.448" y2="4.801" transform="translate(7.993 10.972)" fill="none" stroke="#b1b6bb" stroke-miterlimit="10" stroke-width="1.5"/>
      <path id="패스_351" data-name="패스 351" d="M659.5-204.818s3.773-.187,5.017-1.682" transform="translate(-648.284 217.472)" fill="none" stroke="#b1b6bb" stroke-miterlimit="10" stroke-width="1.5"/>
      <path id="패스_352" data-name="패스 352" d="M661.5-170.034s3.01.132,3.607-.261" transform="translate(-650.097 184.65)" fill="none" stroke="#b1b6bb" stroke-miterlimit="10" stroke-width="1.5"/>
    </g>
  </g>
</svg>
