<svg xmlns="http://www.w3.org/2000/svg" width="30" height="27" viewBox="0 0 30 27">
  <g id="그룹_14027" data-name="그룹 14027" transform="translate(-132 -143.917)" opacity="0.6">
    <g id="다각형_1" data-name="다각형 1" transform="translate(132 143.917)" fill="none">
      <path d="M13.252,3.147a2,2,0,0,1,3.5,0l11.6,20.882A2,2,0,0,1,26.6,27H3.4a2,2,0,0,1-1.748-2.971Z" stroke="none"/>
      <path d="M 15 4.118253707885742 L 3.399021148681641 25.00000381469727 C 3.399015426635742 25.0000057220459 3.399024963378906 25.00000381469727 3.399030685424805 25.00000381469727 L 26.6009693145752 25.00000381469727 C 26.60097312927246 25.00000381469727 26.6008186340332 25.00002670288086 26.60098075866699 25.00000381469727 L 15 4.118253707885742 M 15 2.118249893188477 C 15.68365287780762 2.118249893188477 16.36730575561523 2.461154937744141 16.74831008911133 3.146965026855469 L 28.34929084777832 24.02871322631836 C 29.08987998962402 25.36177444458008 28.12594032287598 27.00000381469727 26.6009693145752 27.00000381469727 L 3.399030685424805 27.00000381469727 C 1.874059677124023 27.00000381469727 0.9101200103759766 25.36177444458008 1.65070915222168 24.02871322631836 L 13.25168991088867 3.146965026855469 C 13.63269424438477 2.461154937744141 14.31634712219238 2.118249893188477 15 2.118249893188477 Z" stroke="none" fill="#676a7a"/>
    </g>
    <rect id="사각형_6702" data-name="사각형 6702" width="1.649" height="10.309" rx="0.825" transform="translate(146 153.499)" fill="#676a7a"/>
    <circle id="타원_40" data-name="타원 40" cx="1" cy="1" r="1" transform="translate(146 164.917)" fill="#676a7a"/>
  </g>
</svg>
