<svg xmlns="http://www.w3.org/2000/svg" width="128" height="112" viewBox="0 0 128 112">
  <g id="그룹_14027" data-name="그룹 14027" transform="translate(-132 -143.917)" opacity="0.6">
    <g id="다각형_1" data-name="다각형 1" transform="translate(132 143.917)" fill="none">
      <path d="M57.054,12.155a8,8,0,0,1,13.892,0l50.215,87.875A8,8,0,0,1,114.215,112H13.785a8,8,0,0,1-6.946-11.969Z" stroke="none"/>
      <path d="M 63.99999237060547 12.12450408935547 C 63.30205535888672 12.12450408935547 61.56647491455078 12.32088470458984 60.52703094482422 14.13996124267578 L 10.31246948242188 102.0154418945312 C 9.280975341796875 103.8205413818359 9.978172302246094 105.4086837768555 10.32579040527344 106.0077056884766 C 10.67341613769531 106.6067428588867 11.70641326904297 108 13.78543090820312 108 L 114.2145538330078 108 C 116.293571472168 108 117.3265686035156 106.6067428588867 117.6741943359375 106.0077056884766 C 118.0218124389648 105.4086837768555 118.7190093994141 103.8205413818359 117.6875152587891 102.0154418945312 L 67.47295379638672 14.13996124267578 C 66.43348693847656 12.32088470458984 64.69793701171875 12.12450408935547 63.99999237060547 12.12450408935547 M 63.99999237060547 8.12451171875 C 66.70517730712891 8.12451171875 69.41036224365234 9.4681396484375 70.94593048095703 12.15540313720703 L 121.1604919433594 100.0308837890625 C 124.2080688476562 105.364143371582 120.3571319580078 112 114.2145538330078 112 L 13.78543090820312 112 C 7.642852783203125 112 3.791915893554688 105.364143371582 6.839492797851562 100.0308837890625 L 57.05405426025391 12.15540313720703 C 58.58962249755859 9.4681396484375 61.29480743408203 8.12451171875 63.99999237060547 8.12451171875 Z" stroke="none" fill="#676a7a"/>
    </g>
    <rect id="사각형_6702" data-name="사각형 6702" width="6.917" height="43.229" rx="3.458" transform="translate(192.521 184.102)" fill="#676a7a"/>
    <circle id="타원_40" data-name="타원 40" cx="5" cy="5" r="5" transform="translate(191 232.917)" fill="#676a7a"/>
  </g>
</svg>
