<svg xmlns="http://www.w3.org/2000/svg" xmlns:xlink="http://www.w3.org/1999/xlink" width="88" height="76" viewBox="0 0 88 76">
  <defs>
    <clipPath id="clip-path">
      <rect id="사각형_26" data-name="사각형 26" width="88" height="76" transform="translate(55 208)" fill="none" stroke="#707070" stroke-width="1"/>
    </clipPath>
  </defs>
  <g id="마스크_그룹_2" data-name="마스크 그룹 2" transform="translate(-55 -208)" clip-path="url(#clip-path)">
    <g id="그룹_173" data-name="그룹 173" transform="translate(-462.428 538.924)">
      <path id="패스_349" data-name="패스 349" d="M585.307-299.158s1.48-20.125-16.278-23.973-24.861,7.4-27.229,10.359c0,0-5.286,7.916.042,19.162s8.583,10.951,7.7,18.35a73.268,73.268,0,0,1-3.848,15.094h25.453s-.888-8.287,2.368-10.063l7.1-.3a5.262,5.262,0,0,0,3.848-2.368c1.4-1.873,4.847-11.711,6.224-15.739a3.644,3.644,0,0,0-.432-3.222Z" fill="none" stroke="#676a7a" stroke-miterlimit="10" stroke-width="3"/>
      <path id="패스_350" data-name="패스 350" d="M619.171-231.214s-10.1,7.112-18.088,6.816l-12.726-7.4s-2.368-.888-3.552,2.072,1.48,10.359,3.552,10.655a6.944,6.944,0,0,0,2.614-.083.828.828,0,0,1,.949.458c.976,2.122,4,8.645,5.02,10.28,1.48,2.368,8.287,2.96,8.287,2.96" transform="translate(-31.717 -64.773)" fill="none" stroke="#676a7a" stroke-miterlimit="10" stroke-width="3"/>
      <line id="선_1" data-name="선 1" x1="4.586" y2="15.206" transform="translate(564.78 -289.171)" fill="none" stroke="#676a7a" stroke-miterlimit="10" stroke-width="3"/>
      <path id="패스_351" data-name="패스 351" d="M659.5-201.173s11.952-.592,15.891-5.327" transform="translate(-84.51 -82.671)" fill="none" stroke="#676a7a" stroke-miterlimit="10" stroke-width="3"/>
      <path id="패스_352" data-name="패스 352" d="M661.5-169.468s9.534.418,11.426-.827" transform="translate(-85.918 -108.161)" fill="none" stroke="#676a7a" stroke-miterlimit="10" stroke-width="3"/>
    </g>
  </g>
</svg>
