<svg xmlns="http://www.w3.org/2000/svg" xmlns:xlink="http://www.w3.org/1999/xlink" width="88" height="76" viewBox="0 0 88 76">
  <defs>
    <clipPath id="clip-path">
      <rect id="사각형_6866" data-name="사각형 6866" width="88" height="76" transform="translate(55 208)" fill="none" stroke="#707070" stroke-width="1"/>
    </clipPath>
  </defs>
  <g id="마스크_그룹_69" data-name="마스크 그룹 69" transform="translate(-55 -208)" clip-path="url(#clip-path)">
    <g id="그룹_14145" data-name="그룹 14145" transform="translate(-548.266 -735)" opacity="0.6">
      <path id="패스_402" data-name="패스 402" d="M623.413,997.421a29.509,29.509,0,1,1,42.437,7.785,16.99,16.99,0,0,1-8.028,2.217c-4.209,0-10.414-2-10.086-12.627" transform="translate(0 0)" fill="none" stroke="#676a7a" stroke-linecap="round" stroke-miterlimit="10" stroke-width="3"/>
      <path id="패스_403" data-name="패스 403" d="M639.651,966H633v13.329a11,11,0,0,0,1.165,5c1.672,3.275,5.316,8.245,12.057,8.245" transform="translate(1.545 1.519)" fill="none" stroke="#676a7a" stroke-linecap="round" stroke-linejoin="round" stroke-width="3"/>
      <path id="패스_404" data-name="패스 404" d="M651.5,966h6.65v13.329a10.987,10.987,0,0,1-1.166,5c-1.67,3.275-5.315,8.245-12.057,8.245" transform="translate(2.838 1.519)" fill="none" stroke="#676a7a" stroke-linecap="round" stroke-linejoin="round" stroke-width="3"/>
      <circle id="타원_29" data-name="타원 29" cx="6.608" cy="6.608" r="6.608" transform="translate(621 996.785)" fill="#fff" stroke="#676a7a" stroke-width="3"/>
    </g>
  </g>
</svg>
