<svg id="그룹_92" data-name="그룹 92" xmlns="http://www.w3.org/2000/svg" width="257.79" height="64.325" viewBox="0 0 257.79 64.325">
  <g id="그룹_89" data-name="그룹 89">
    <path id="패스_302" data-name="패스 302" d="M468.025,1156.608a31.189,31.189,0,0,1-8.643,13.339,6.935,6.935,0,0,1-6.9,1.376,25.57,25.57,0,0,1-2.494-.858,12.4,12.4,0,0,0-9.716-.015c-.673.271-1.364.5-2.047.746a7.1,7.1,0,0,1-7.918-1.745,34.672,34.672,0,0,1-9.384-16.517,25.462,25.462,0,0,1-.174-13.344c1.782-6.372,6.817-10.666,13.273-11.012a12.99,12.99,0,0,1,5.674,1.09,10.755,10.755,0,0,0,9.246-.028,14.648,14.648,0,0,1,12.263.054,12.242,12.242,0,0,1,5.239,4.289C457.412,1139.185,458.147,1152.087,468.025,1156.608Z" transform="translate(-419.941 -1114.894)" fill="#fff"/>
    <path id="패스_303" data-name="패스 303" d="M466.631,1109.132a30.433,30.433,0,0,1-.418,3.618c-1.113,4.779-5.478,8.954-9.968,9.64-1.6.245-1.824.048-1.716-1.543A13.226,13.226,0,0,1,466.157,1109,2.461,2.461,0,0,1,466.631,1109.132Z" transform="translate(-430.485 -1109)" fill="#fff"/>
  </g>
  <g id="그룹_90" data-name="그룹 90" transform="translate(76.991 2.188)">
    <path id="패스_304" data-name="패스 304" d="M542.569,1121.525c0,5.163-2.915,7.765-7.452,7.765h-4.392v-15.4h4.226C539.655,1113.886,542.569,1116.3,542.569,1121.525Zm-3.143,0c0-3.767-1.769-5.183-4.663-5.183h-.957v10.47h.957C537.657,1126.813,539.426,1125.272,539.426,1121.525Z" transform="translate(-530.725 -1112.678)" fill="#fff"/>
    <path id="패스_305" data-name="패스 305" d="M550.7,1125c0-3.892,2.685-6.141,5.6-6.141s5.6,2.249,5.6,6.141c0,3.83-2.685,6.1-5.6,6.1S550.7,1128.828,550.7,1125Zm8.076,0c0-2.248-.9-3.643-2.477-3.643s-2.478,1.395-2.478,3.643c0,2.186.9,3.6,2.478,3.6S558.774,1127.184,558.774,1125Z" transform="translate(-536.817 -1114.194)" fill="#fff"/>
    <path id="패스_306" data-name="패스 306" d="M573.265,1125.043c.229,1.165.354,2.227.583,3.393h.083c.229-1.166.417-2.29.729-3.393l1.395-5.766h2.727l1.457,5.766c.271,1.165.479,2.227.728,3.393h.1c.229-1.166.354-2.227.583-3.393l1.27-5.766h2.831l-2.873,11.657h-3.6l-1.228-5.08c-.25-1.1-.437-2.144-.666-3.393h-.1c-.229,1.249-.4,2.311-.645,3.393l-1.187,5.08h-3.5l-3.018-11.657h3.06Z" transform="translate(-542.38 -1114.323)" fill="#fff"/>
    <path id="패스_307" data-name="패스 307" d="M599.041,1120.689h.083a5.373,5.373,0,0,1,3.788-1.832c2.519,0,3.6,1.749,3.6,4.685v7.265h-3.06v-6.89c0-1.812-.479-2.436-1.644-2.436-.979,0-1.541.458-2.436,1.312v8.014h-3.039v-11.657h2.5Z" transform="translate(-550.738 -1114.194)" fill="#fff"/>
    <path id="패스_308" data-name="패스 308" d="M618.569,1112.148v16.612H615.53v-16.612Z" transform="translate(-556.593 -1112.148)" fill="#fff"/>
    <path id="패스_309" data-name="패스 309" d="M623.915,1125c0-3.892,2.685-6.141,5.6-6.141s5.6,2.249,5.6,6.141c0,3.83-2.685,6.1-5.6,6.1S623.915,1128.828,623.915,1125Zm8.076,0c0-2.248-.9-3.643-2.477-3.643s-2.478,1.395-2.478,3.643c0,2.186.9,3.6,2.478,3.6S631.991,1127.184,631.991,1125Z" transform="translate(-559.151 -1114.194)" fill="#fff"/>
    <path id="패스_310" data-name="패스 310" d="M642.866,1127.642c-.145-2.852,1.874-4.163,6.7-4.309a2.655,2.655,0,0,0-.271-1.478c-.25-.354-.812-.541-1.707-.541a6.481,6.481,0,0,0-3.373,1.1l-.916-2.185a9.622,9.622,0,0,1,4.851-1.375c2.977,0,4.475,1.707,4.475,5.142v6.807h-2.5l-.229-1.186h-.063a5.383,5.383,0,0,1-3.517,1.395A3.225,3.225,0,0,1,642.866,1127.642Zm6.7-.083v-2.353c-.729.063-1.437.125-2.1.229-1.332.188-1.811.853-1.79,1.686a1.5,1.5,0,0,0,1.582,1.561A3.227,3.227,0,0,0,649.57,1127.559Z" transform="translate(-564.929 -1114.194)" fill="#fff"/>
    <path id="패스_311" data-name="패스 311" d="M660.448,1122.952c0-3.809,2.373-6.141,4.891-6.141a3.977,3.977,0,0,1,2.956,1.271l-.124-1.832v-4.1h3.06v16.612h-2.478l-.25-1.208h-.062a4.748,4.748,0,0,1-3.227,1.5C662.3,1129.051,660.448,1126.762,660.448,1122.952Zm7.723,2.373V1120.2a3.136,3.136,0,0,0-2.166-.874c-1.311,0-2.414,1.249-2.414,3.581,0,2.414.812,3.622,2.414,3.622A2.546,2.546,0,0,0,668.171,1125.325Z" transform="translate(-570.295 -1112.148)" fill="#fff"/>
    <path id="패스_312" data-name="패스 312" d="M686.44,1125c0-3.892,2.685-6.141,5.6-6.141s5.6,2.249,5.6,6.141c0,3.83-2.686,6.1-5.6,6.1S686.44,1128.828,686.44,1125Zm8.077,0c0-2.248-.9-3.643-2.478-3.643s-2.477,1.395-2.477,3.643c0,2.186.9,3.6,2.477,3.6S694.517,1127.184,694.517,1125Z" transform="translate(-578.223 -1114.194)" fill="#fff"/>
    <path id="패스_313" data-name="패스 313" d="M708.94,1120.689h.083a5.375,5.375,0,0,1,3.788-1.832c2.519,0,3.6,1.749,3.6,4.685v7.265h-3.06v-6.89c0-1.812-.48-2.436-1.645-2.436-.979,0-1.54.458-2.436,1.312v8.014h-3.039v-11.657h2.5Z" transform="translate(-584.261 -1114.194)" fill="#fff"/>
    <path id="패스_314" data-name="패스 314" d="M732.133,1125.484v-5.162h-1.644v-2.27l1.79-.145.354-3.122h2.561v3.122h2.873v2.415h-2.873v5.162c0,1.311.521,1.956,1.582,1.956a2.887,2.887,0,0,0,1.145-.25l.5,2.227a7.1,7.1,0,0,1-2.456.437C733.2,1129.855,732.133,1128.107,732.133,1125.484Z" transform="translate(-591.659 -1112.952)" fill="#fff"/>
    <path id="패스_315" data-name="패스 315" d="M747.843,1116.332l-.125,2.185a5.223,5.223,0,0,1,3.664-1.707c2.519,0,3.6,1.749,3.6,4.685v7.265h-3.06v-6.89c0-1.812-.48-2.436-1.644-2.436-.979,0-1.541.458-2.436,1.312v8.014H744.8v-16.612h3.039Z" transform="translate(-596.026 -1112.148)" fill="#fff"/>
    <path id="패스_316" data-name="패스 316" d="M762.921,1125c0-3.768,2.665-6.141,5.433-6.141,3.206,0,4.871,2.352,4.871,5.579a5.677,5.677,0,0,1-.146,1.395H765.9a3.05,3.05,0,0,0,3.227,2.914,4.749,4.749,0,0,0,2.622-.812l1.041,1.874a7.145,7.145,0,0,1-4.08,1.291C765.46,1131.1,762.921,1128.828,762.921,1125Zm5.474-3.768a2.645,2.645,0,0,0-2.539,2.581H770.6C770.6,1122.23,769.894,1121.23,768.4,1121.23Z" transform="translate(-601.552 -1114.194)" fill="#fff"/>
  </g>
  <g id="그룹_91" data-name="그룹 91" transform="translate(76.121 27.302)">
    <path id="패스_317" data-name="패스 317" d="M535.2,1177.328h-5.731l9.055-28.273h6.648l9.093,28.273h-5.922l-1.987-7.259H537.19Zm6.61-23.994h-.152c-.726,3.095-1.528,6.3-2.407,9.246l-.841,3.095h6.725l-.841-3.095C543.417,1159.639,542.692,1156.39,541.813,1153.335Z" transform="translate(-529.472 -1148.52)" fill="#fff"/>
    <path id="패스_318" data-name="패스 318" d="M574.241,1160.933h.153a10.153,10.153,0,0,1,6.3-2.751c5.273,0,8.406,4.317,8.406,10.889,0,7.335-4.395,11.577-9.094,11.577a7.947,7.947,0,0,1-5.311-2.331l.153,3.515v6.5h-5.579v-29.611h4.585Zm9.094,8.214c0-4.127-1.3-6.342-4.241-6.342-1.49,0-2.751.726-4.241,2.216v9.4a5.912,5.912,0,0,0,3.9,1.6C581.347,1176.024,583.334,1173.885,583.334,1169.147Z" transform="translate(-541.613 -1151.304)" fill="#fff"/>
    <path id="패스_319" data-name="패스 319" d="M609.644,1160.933h.153a10.153,10.153,0,0,1,6.3-2.751c5.273,0,8.406,4.317,8.406,10.889,0,7.335-4.394,11.577-9.094,11.577a7.95,7.95,0,0,1-5.311-2.331l.153,3.515v6.5h-5.578v-29.611h4.585Zm9.094,8.214c0-4.127-1.3-6.342-4.241-6.342-1.491,0-2.751.726-4.241,2.216v9.4a5.914,5.914,0,0,0,3.9,1.6C616.751,1176.024,618.738,1173.885,618.738,1169.147Z" transform="translate(-552.412 -1151.304)" fill="#fff"/>
    <path id="패스_320" data-name="패스 320" d="M650.525,1173.5l3.248-3.9a11.125,11.125,0,0,0,7.183,3.133c2.942,0,4.508-1.261,4.508-3.248,0-2.14-1.681-2.712-4.241-3.821l-3.783-1.6c-2.865-1.223-5.731-3.477-5.731-7.6,0-4.624,4.088-8.177,9.782-8.177a12.415,12.415,0,0,1,8.864,3.63l-2.866,3.553a9.019,9.019,0,0,0-6-2.33c-2.485,0-4.089,1.107-4.089,2.98,0,1.911,2.025,2.789,4.432,3.706l3.706,1.566c3.514,1.414,5.693,3.553,5.693,7.679,0,4.624-3.858,8.559-10.392,8.559A15,15,0,0,1,650.525,1173.5Z" transform="translate(-566.397 -1148.285)" fill="#fff"/>
    <path id="패스_321" data-name="패스 321" d="M684.99,1170.343v-9.476h-3.018V1156.7l3.286-.268.65-5.731h4.7v5.731h5.273v4.432h-5.273v9.476c0,2.407.956,3.592,2.9,3.592a5.306,5.306,0,0,0,2.1-.459l.917,4.089a13.07,13.07,0,0,1-4.508.8C686.939,1178.367,684.99,1175.157,684.99,1170.343Z" transform="translate(-575.989 -1149.023)" fill="#fff"/>
    <path id="패스_322" data-name="패스 322" d="M705.282,1169.452c0-7.144,4.929-11.27,10.278-11.27s10.278,4.126,10.278,11.27c0,7.031-4.929,11.2-10.278,11.2S705.282,1176.483,705.282,1169.452Zm14.824,0c0-4.126-1.643-6.686-4.546-6.686s-4.546,2.56-4.546,6.686c0,4.012,1.643,6.61,4.546,6.61S720.106,1173.464,720.106,1169.452Z" transform="translate(-583.1 -1151.304)" fill="#fff"/>
    <path id="패스_323" data-name="패스 323" d="M746.588,1162.5h.152c1.566-2.79,3.783-4.317,6.075-4.317a6.051,6.051,0,0,1,2.521.458l-.993,4.852a5.871,5.871,0,0,0-2.216-.344c-1.681,0-3.706,1.109-4.929,4.2v12.761H741.62v-21.4h4.585Z" transform="translate(-594.184 -1151.304)" fill="#fff"/>
    <path id="패스_324" data-name="패스 324" d="M763.665,1169.452c0-6.916,4.891-11.27,9.973-11.27,5.883,0,8.94,4.317,8.94,10.239a10.442,10.442,0,0,1-.268,2.56H769.129c.459,3.515,2.713,5.349,5.923,5.349a8.729,8.729,0,0,0,4.814-1.491l1.91,3.439a13.117,13.117,0,0,1-7.489,2.369C768.326,1180.648,763.665,1176.483,763.665,1169.452Zm10.049-6.916c-2.254,0-4.241,1.644-4.661,4.738h8.711C777.764,1164.371,776.465,1162.537,773.714,1162.537Z" transform="translate(-600.908 -1151.304)" fill="#fff"/>
  </g>
</svg>
